%TF.GenerationSoftware,KiCad,Pcbnew,8.0.3*%
%TF.CreationDate,2024-07-15T13:33:40+01:00*%
%TF.ProjectId,Alignment PCB,416c6967-6e6d-4656-9e74-205043422e6b,rev?*%
%TF.SameCoordinates,Original*%
%TF.FileFunction,Legend,Top*%
%TF.FilePolarity,Positive*%
%FSLAX46Y46*%
G04 Gerber Fmt 4.6, Leading zero omitted, Abs format (unit mm)*
G04 Created by KiCad (PCBNEW 8.0.3) date 2024-07-15 13:33:40*
%MOMM*%
%LPD*%
G01*
G04 APERTURE LIST*
%ADD10C,0.150000*%
%ADD11C,0.120000*%
G04 APERTURE END LIST*
D10*
X109641905Y-58104819D02*
X109641905Y-57104819D01*
X109641905Y-57104819D02*
X109880000Y-57104819D01*
X109880000Y-57104819D02*
X110022857Y-57152438D01*
X110022857Y-57152438D02*
X110118095Y-57247676D01*
X110118095Y-57247676D02*
X110165714Y-57342914D01*
X110165714Y-57342914D02*
X110213333Y-57533390D01*
X110213333Y-57533390D02*
X110213333Y-57676247D01*
X110213333Y-57676247D02*
X110165714Y-57866723D01*
X110165714Y-57866723D02*
X110118095Y-57961961D01*
X110118095Y-57961961D02*
X110022857Y-58057200D01*
X110022857Y-58057200D02*
X109880000Y-58104819D01*
X109880000Y-58104819D02*
X109641905Y-58104819D01*
X111070476Y-57438152D02*
X111070476Y-58104819D01*
X110832381Y-57057200D02*
X110594286Y-57771485D01*
X110594286Y-57771485D02*
X111213333Y-57771485D01*
X88421905Y-58104819D02*
X88421905Y-57104819D01*
X88421905Y-57104819D02*
X88660000Y-57104819D01*
X88660000Y-57104819D02*
X88802857Y-57152438D01*
X88802857Y-57152438D02*
X88898095Y-57247676D01*
X88898095Y-57247676D02*
X88945714Y-57342914D01*
X88945714Y-57342914D02*
X88993333Y-57533390D01*
X88993333Y-57533390D02*
X88993333Y-57676247D01*
X88993333Y-57676247D02*
X88945714Y-57866723D01*
X88945714Y-57866723D02*
X88898095Y-57961961D01*
X88898095Y-57961961D02*
X88802857Y-58057200D01*
X88802857Y-58057200D02*
X88660000Y-58104819D01*
X88660000Y-58104819D02*
X88421905Y-58104819D01*
X89326667Y-57104819D02*
X89945714Y-57104819D01*
X89945714Y-57104819D02*
X89612381Y-57485771D01*
X89612381Y-57485771D02*
X89755238Y-57485771D01*
X89755238Y-57485771D02*
X89850476Y-57533390D01*
X89850476Y-57533390D02*
X89898095Y-57581009D01*
X89898095Y-57581009D02*
X89945714Y-57676247D01*
X89945714Y-57676247D02*
X89945714Y-57914342D01*
X89945714Y-57914342D02*
X89898095Y-58009580D01*
X89898095Y-58009580D02*
X89850476Y-58057200D01*
X89850476Y-58057200D02*
X89755238Y-58104819D01*
X89755238Y-58104819D02*
X89469524Y-58104819D01*
X89469524Y-58104819D02*
X89374286Y-58057200D01*
X89374286Y-58057200D02*
X89326667Y-58009580D01*
X109641905Y-36884819D02*
X109641905Y-35884819D01*
X109641905Y-35884819D02*
X109880000Y-35884819D01*
X109880000Y-35884819D02*
X110022857Y-35932438D01*
X110022857Y-35932438D02*
X110118095Y-36027676D01*
X110118095Y-36027676D02*
X110165714Y-36122914D01*
X110165714Y-36122914D02*
X110213333Y-36313390D01*
X110213333Y-36313390D02*
X110213333Y-36456247D01*
X110213333Y-36456247D02*
X110165714Y-36646723D01*
X110165714Y-36646723D02*
X110118095Y-36741961D01*
X110118095Y-36741961D02*
X110022857Y-36837200D01*
X110022857Y-36837200D02*
X109880000Y-36884819D01*
X109880000Y-36884819D02*
X109641905Y-36884819D01*
X110594286Y-35980057D02*
X110641905Y-35932438D01*
X110641905Y-35932438D02*
X110737143Y-35884819D01*
X110737143Y-35884819D02*
X110975238Y-35884819D01*
X110975238Y-35884819D02*
X111070476Y-35932438D01*
X111070476Y-35932438D02*
X111118095Y-35980057D01*
X111118095Y-35980057D02*
X111165714Y-36075295D01*
X111165714Y-36075295D02*
X111165714Y-36170533D01*
X111165714Y-36170533D02*
X111118095Y-36313390D01*
X111118095Y-36313390D02*
X110546667Y-36884819D01*
X110546667Y-36884819D02*
X111165714Y-36884819D01*
X88421905Y-36884819D02*
X88421905Y-35884819D01*
X88421905Y-35884819D02*
X88660000Y-35884819D01*
X88660000Y-35884819D02*
X88802857Y-35932438D01*
X88802857Y-35932438D02*
X88898095Y-36027676D01*
X88898095Y-36027676D02*
X88945714Y-36122914D01*
X88945714Y-36122914D02*
X88993333Y-36313390D01*
X88993333Y-36313390D02*
X88993333Y-36456247D01*
X88993333Y-36456247D02*
X88945714Y-36646723D01*
X88945714Y-36646723D02*
X88898095Y-36741961D01*
X88898095Y-36741961D02*
X88802857Y-36837200D01*
X88802857Y-36837200D02*
X88660000Y-36884819D01*
X88660000Y-36884819D02*
X88421905Y-36884819D01*
X89945714Y-36884819D02*
X89374286Y-36884819D01*
X89660000Y-36884819D02*
X89660000Y-35884819D01*
X89660000Y-35884819D02*
X89564762Y-36027676D01*
X89564762Y-36027676D02*
X89469524Y-36122914D01*
X89469524Y-36122914D02*
X89374286Y-36170533D01*
X93333333Y-56374819D02*
X93000000Y-55898628D01*
X92761905Y-56374819D02*
X92761905Y-55374819D01*
X92761905Y-55374819D02*
X93142857Y-55374819D01*
X93142857Y-55374819D02*
X93238095Y-55422438D01*
X93238095Y-55422438D02*
X93285714Y-55470057D01*
X93285714Y-55470057D02*
X93333333Y-55565295D01*
X93333333Y-55565295D02*
X93333333Y-55708152D01*
X93333333Y-55708152D02*
X93285714Y-55803390D01*
X93285714Y-55803390D02*
X93238095Y-55851009D01*
X93238095Y-55851009D02*
X93142857Y-55898628D01*
X93142857Y-55898628D02*
X92761905Y-55898628D01*
X93714286Y-55470057D02*
X93761905Y-55422438D01*
X93761905Y-55422438D02*
X93857143Y-55374819D01*
X93857143Y-55374819D02*
X94095238Y-55374819D01*
X94095238Y-55374819D02*
X94190476Y-55422438D01*
X94190476Y-55422438D02*
X94238095Y-55470057D01*
X94238095Y-55470057D02*
X94285714Y-55565295D01*
X94285714Y-55565295D02*
X94285714Y-55660533D01*
X94285714Y-55660533D02*
X94238095Y-55803390D01*
X94238095Y-55803390D02*
X93666667Y-56374819D01*
X93666667Y-56374819D02*
X94285714Y-56374819D01*
X95333333Y-47874819D02*
X95000000Y-47398628D01*
X94761905Y-47874819D02*
X94761905Y-46874819D01*
X94761905Y-46874819D02*
X95142857Y-46874819D01*
X95142857Y-46874819D02*
X95238095Y-46922438D01*
X95238095Y-46922438D02*
X95285714Y-46970057D01*
X95285714Y-46970057D02*
X95333333Y-47065295D01*
X95333333Y-47065295D02*
X95333333Y-47208152D01*
X95333333Y-47208152D02*
X95285714Y-47303390D01*
X95285714Y-47303390D02*
X95238095Y-47351009D01*
X95238095Y-47351009D02*
X95142857Y-47398628D01*
X95142857Y-47398628D02*
X94761905Y-47398628D01*
X96285714Y-47874819D02*
X95714286Y-47874819D01*
X96000000Y-47874819D02*
X96000000Y-46874819D01*
X96000000Y-46874819D02*
X95904762Y-47017676D01*
X95904762Y-47017676D02*
X95809524Y-47112914D01*
X95809524Y-47112914D02*
X95714286Y-47160533D01*
X104166666Y-48379819D02*
X104166666Y-49094104D01*
X104166666Y-49094104D02*
X104119047Y-49236961D01*
X104119047Y-49236961D02*
X104023809Y-49332200D01*
X104023809Y-49332200D02*
X103880952Y-49379819D01*
X103880952Y-49379819D02*
X103785714Y-49379819D01*
X105166666Y-49379819D02*
X104595238Y-49379819D01*
X104880952Y-49379819D02*
X104880952Y-48379819D01*
X104880952Y-48379819D02*
X104785714Y-48522676D01*
X104785714Y-48522676D02*
X104690476Y-48617914D01*
X104690476Y-48617914D02*
X104595238Y-48665533D01*
D11*
%TO.C,D4*%
X108820000Y-59374000D02*
X108820000Y-59530000D01*
X108820000Y-61690000D02*
X108820000Y-61846000D01*
X108820000Y-59374484D02*
G75*
G02*
X112052335Y-59531392I1560000J-1235516D01*
G01*
X109339039Y-59530000D02*
G75*
G02*
X111421130Y-59530163I1040961J-1080000D01*
G01*
X111421130Y-61689837D02*
G75*
G02*
X109339039Y-61690000I-1041130J1079837D01*
G01*
X112052335Y-61688608D02*
G75*
G02*
X108820000Y-61845516I-1672335J1078608D01*
G01*
%TO.C,D3*%
X87600000Y-59374000D02*
X87600000Y-59530000D01*
X87600000Y-61690000D02*
X87600000Y-61846000D01*
X87600000Y-59374484D02*
G75*
G02*
X90832335Y-59531392I1560000J-1235516D01*
G01*
X88119039Y-59530000D02*
G75*
G02*
X90201130Y-59530163I1040961J-1080000D01*
G01*
X90201130Y-61689837D02*
G75*
G02*
X88119039Y-61690000I-1041130J1079837D01*
G01*
X90832335Y-61688608D02*
G75*
G02*
X87600000Y-61845516I-1672335J1078608D01*
G01*
%TO.C,D2*%
X112052335Y-40468608D02*
G75*
G02*
X108820000Y-40625516I-1672335J1078608D01*
G01*
X111421130Y-40469837D02*
G75*
G02*
X109339039Y-40470000I-1041130J1079837D01*
G01*
X109339039Y-38310000D02*
G75*
G02*
X111421130Y-38310163I1040961J-1080000D01*
G01*
X108820000Y-38154484D02*
G75*
G02*
X112052335Y-38311392I1560000J-1235516D01*
G01*
X108820000Y-40470000D02*
X108820000Y-40626000D01*
X108820000Y-38154000D02*
X108820000Y-38310000D01*
%TO.C,D1*%
X90832335Y-40468608D02*
G75*
G02*
X87600000Y-40625516I-1672335J1078608D01*
G01*
X90201130Y-40469837D02*
G75*
G02*
X88119039Y-40470000I-1041130J1079837D01*
G01*
X88119039Y-38310000D02*
G75*
G02*
X90201130Y-38310163I1040961J-1080000D01*
G01*
X87600000Y-38154484D02*
G75*
G02*
X90832335Y-38311392I1560000J-1235516D01*
G01*
X87600000Y-40470000D02*
X87600000Y-40626000D01*
X87600000Y-38154000D02*
X87600000Y-38310000D01*
%TO.C,R2*%
X96370000Y-54000000D02*
X95420000Y-54000000D01*
X95420000Y-54920000D02*
X95420000Y-53080000D01*
X95420000Y-53080000D02*
X91580000Y-53080000D01*
X91580000Y-54920000D02*
X95420000Y-54920000D01*
X91580000Y-53080000D02*
X91580000Y-54920000D01*
X90630000Y-54000000D02*
X91580000Y-54000000D01*
%TO.C,R1*%
X98370000Y-45500000D02*
X97420000Y-45500000D01*
X97420000Y-46420000D02*
X97420000Y-44580000D01*
X97420000Y-44580000D02*
X93580000Y-44580000D01*
X93580000Y-46420000D02*
X97420000Y-46420000D01*
X93580000Y-44580000D02*
X93580000Y-46420000D01*
X92630000Y-45500000D02*
X93580000Y-45500000D01*
%TO.C,J1*%
X100400000Y-49725000D02*
X100400000Y-50975000D01*
X100690000Y-50015000D02*
X100690000Y-55985000D01*
X100690000Y-55985000D02*
X108310000Y-55985000D01*
X100700000Y-50025000D02*
X100700000Y-50775000D01*
X100700000Y-50775000D02*
X102500000Y-50775000D01*
X100700000Y-52275000D02*
X101450000Y-52275000D01*
X101450000Y-52275000D02*
X101450000Y-55225000D01*
X101450000Y-55225000D02*
X104500000Y-55225000D01*
X101650000Y-49725000D02*
X100400000Y-49725000D01*
X102500000Y-50025000D02*
X100700000Y-50025000D01*
X102500000Y-50775000D02*
X102500000Y-50025000D01*
X104000000Y-50025000D02*
X104000000Y-50775000D01*
X104000000Y-50775000D02*
X105000000Y-50775000D01*
X105000000Y-50025000D02*
X104000000Y-50025000D01*
X105000000Y-50775000D02*
X105000000Y-50025000D01*
X106500000Y-50025000D02*
X106500000Y-50775000D01*
X106500000Y-50775000D02*
X108300000Y-50775000D01*
X107550000Y-52275000D02*
X107550000Y-55225000D01*
X107550000Y-55225000D02*
X104500000Y-55225000D01*
X108300000Y-50025000D02*
X106500000Y-50025000D01*
X108300000Y-50775000D02*
X108300000Y-50025000D01*
X108300000Y-52275000D02*
X107550000Y-52275000D01*
X108310000Y-50015000D02*
X100690000Y-50015000D01*
X108310000Y-55985000D02*
X108310000Y-50015000D01*
%TD*%
M02*
